<?xml version="1.0" encoding="UTF-8" standalone="no"?>
<!DOCTYPE svg PUBLIC "-//W3C//DTD SVG 1.1//EN"
 "http://www.w3.org/Graphics/SVG/1.1/DTD/svg11.dtd">
<!-- Generated by graphviz version 2.40.1 (20161225.0304)
 -->
<!-- Title: dependencies Pages: 1 -->
<svg width="882pt" height="355pt"
 viewBox="0.00 0.00 882.00 355.00" xmlns="http://www.w3.org/2000/svg" xmlns:xlink="http://www.w3.org/1999/xlink">
<g id="graph0" class="graph" transform="scale(1 1) rotate(0) translate(4 351)">
<title>dependencies</title>
<polygon fill="#ffffff" stroke="transparent" points="-4,4 -4,-351 878,-351 878,4 -4,4"/>
<text text-anchor="start" x="416.0091" y="-42.4" font-family="sans-serif" font-weight="bold" font-size="14.00" fill="#000000">Legend</text>
<polygon fill="#ffffb3" stroke="transparent" points="203,-10 203,-30 223,-30 223,-10 203,-10"/>
<text text-anchor="start" x="226.629" y="-15.4" font-family="sans-serif" font-size="14.00" fill="#000000"> &#160;Declarations</text>
<polygon fill="#8dd3c7" stroke="transparent" points="316,-10 316,-30 336,-30 336,-10 316,-10"/>
<text text-anchor="start" x="339.7251" y="-15.4" font-family="sans-serif" font-size="14.00" fill="#000000"> &#160;Module</text>
<polygon fill="#80b1d3" stroke="transparent" points="402,-10 402,-30 422,-30 422,-10 402,-10"/>
<text text-anchor="start" x="425.7812" y="-15.4" font-family="sans-serif" font-size="14.00" fill="#000000"> &#160;Bootstrap</text>
<polygon fill="#fdb462" stroke="transparent" points="499,-10 499,-30 519,-30 519,-10 499,-10"/>
<text text-anchor="start" x="522.6732" y="-15.4" font-family="sans-serif" font-size="14.00" fill="#000000"> &#160;Providers</text>
<polygon fill="#fb8072" stroke="transparent" points="595,-10 595,-30 615,-30 615,-10 595,-10"/>
<text text-anchor="start" x="618.7258" y="-15.4" font-family="sans-serif" font-size="14.00" fill="#000000"> &#160;Exports</text>
<g id="clust1" class="cluster">
<title>cluster_AppRoutingModule</title>
<polygon fill="none" stroke="#000000" stroke-dasharray="1,5" points="8,-70 8,-271 218,-271 218,-70 8,-70"/>
</g>
<g id="clust3" class="cluster">
<title>cluster_AppRoutingModule_imports</title>
<polygon fill="none" stroke="#000000" points="16,-78 16,-130 210,-130 210,-78 16,-78"/>
</g>
<g id="clust4" class="cluster">
<title>cluster_AppRoutingModule_exports</title>
<polygon fill="none" stroke="#000000" points="70,-211 70,-263 188,-263 188,-211 70,-211"/>
</g>
<g id="clust7" class="cluster">
<title>cluster_AppModule</title>
<polygon fill="none" stroke="#000000" stroke-dasharray="1,5" points="226,-138 226,-339 866,-339 866,-138 226,-138"/>
</g>
<g id="clust8" class="cluster">
<title>cluster_AppModule_declarations</title>
<polygon fill="none" stroke="#000000" points="364,-146 364,-198 858,-198 858,-146 364,-146"/>
</g>
<g id="clust13" class="cluster">
<title>cluster_AppModule_imports</title>
<polygon fill="none" stroke="#000000" points="234,-146 234,-198 356,-198 356,-146 234,-146"/>
</g>
<g id="clust15" class="cluster">
<title>cluster_AppModule_bootstrap</title>
<polygon fill="none" stroke="#000000" points="424,-279 424,-331 548,-331 548,-279 424,-279"/>
</g>
<!-- RouterModule.forRoot(args) -->
<g id="node1" class="node">
<title>RouterModule.forRoot(args)</title>
<polygon fill="#8dd3c7" stroke="#000000" points="201.8419,-122 198.8419,-126 177.8419,-126 174.8419,-122 24.1581,-122 24.1581,-86 201.8419,-86 201.8419,-122"/>
<text text-anchor="middle" x="113" y="-99.8" font-family="Times,serif" font-size="14.00" fill="#000000">RouterModule.forRoot(args)</text>
</g>
<!-- AppRoutingModule -->
<g id="node2" class="node">
<title>AppRoutingModule</title>
<polygon fill="#8dd3c7" stroke="#000000" points="193.2744,-190 190.2744,-194 169.2744,-194 166.2744,-190 64.7256,-190 64.7256,-154 193.2744,-154 193.2744,-190"/>
<text text-anchor="middle" x="129" y="-167.8" font-family="Times,serif" font-size="14.00" fill="#000000">AppRoutingModule</text>
</g>
<!-- RouterModule.forRoot(args)&#45;&gt;AppRoutingModule -->
<g id="edge1" class="edge">
<title>RouterModule.forRoot(args)&#45;&gt;AppRoutingModule</title>
<path fill="none" stroke="#000000" d="M129,-122.2228C129,-122.2228 129,-143.7269 129,-143.7269"/>
<polygon fill="#000000" stroke="#000000" points="125.5001,-143.7269 129,-153.7269 132.5001,-143.727 125.5001,-143.7269"/>
</g>
<!-- RouterModule  -->
<g id="node3" class="node">
<title>RouterModule </title>
<polygon fill="#fb8072" stroke="#000000" points="179.6523,-255 78.3477,-255 78.3477,-219 179.6523,-219 179.6523,-255"/>
<text text-anchor="middle" x="129" y="-232.8" font-family="Times,serif" font-size="14.00" fill="#000000">RouterModule </text>
</g>
<!-- AppRoutingModule&#45;&gt;RouterModule  -->
<g id="edge2" class="edge">
<title>AppRoutingModule&#45;&gt;RouterModule </title>
<path fill="none" stroke="#000000" stroke-dasharray="5,2" d="M129,-190.1061C129,-190.1061 129,-208.991 129,-208.991"/>
<polygon fill="#000000" stroke="#000000" points="125.5001,-208.9909 129,-218.991 132.5001,-208.991 125.5001,-208.9909"/>
</g>
<!-- AppModule -->
<g id="node8" class="node">
<title>AppModule</title>
<polygon fill="#8dd3c7" stroke="#000000" points="527.6571,-255 524.6571,-259 503.6571,-259 500.6571,-255 444.3429,-255 444.3429,-219 527.6571,-219 527.6571,-255"/>
<text text-anchor="middle" x="486" y="-232.8" font-family="Times,serif" font-size="14.00" fill="#000000">AppModule</text>
</g>
<!-- AppRoutingModule&#45;&gt;AppModule -->
<g id="edge8" class="edge">
<title>AppRoutingModule&#45;&gt;AppModule</title>
<path fill="none" stroke="#000000" d="M186.4816,-190.2843C186.4816,-211.3211 186.4816,-243 186.4816,-243 186.4816,-243 434.0379,-243 434.0379,-243"/>
<polygon fill="#000000" stroke="#000000" points="434.0379,-246.5001 444.0379,-243 434.0378,-239.5001 434.0379,-246.5001"/>
</g>
<!-- AppComponent -->
<g id="node4" class="node">
<title>AppComponent</title>
<polygon fill="#ffffb3" stroke="#000000" points="849.9399,-190 744.0601,-190 744.0601,-154 849.9399,-154 849.9399,-190"/>
<text text-anchor="middle" x="797" y="-167.8" font-family="Times,serif" font-size="14.00" fill="#000000">AppComponent</text>
</g>
<!-- AppComponent&#45;&gt;AppModule -->
<g id="edge3" class="edge">
<title>AppComponent&#45;&gt;AppModule</title>
<path fill="none" stroke="#000000" d="M797,-190.2843C797,-211.3211 797,-243 797,-243 797,-243 537.9428,-243 537.9428,-243"/>
<polygon fill="#000000" stroke="#000000" points="537.9429,-239.5001 527.9428,-243 537.9428,-246.5001 537.9429,-239.5001"/>
</g>
<!-- TabsComponent -->
<g id="node5" class="node">
<title>TabsComponent</title>
<polygon fill="#ffffb3" stroke="#000000" points="726.0452,-190 617.9548,-190 617.9548,-154 726.0452,-154 726.0452,-190"/>
<text text-anchor="middle" x="672" y="-167.8" font-family="Times,serif" font-size="14.00" fill="#000000">TabsComponent</text>
</g>
<!-- TabsComponent&#45;&gt;AppModule -->
<g id="edge4" class="edge">
<title>TabsComponent&#45;&gt;AppModule</title>
<path fill="none" stroke="#000000" d="M672,-190.0225C672,-207.3734 672,-231 672,-231 672,-231 537.742,-231 537.742,-231"/>
<polygon fill="#000000" stroke="#000000" points="537.7421,-227.5001 527.742,-231 537.742,-234.5001 537.7421,-227.5001"/>
</g>
<!-- ListComponent -->
<g id="node6" class="node">
<title>ListComponent</title>
<polygon fill="#ffffb3" stroke="#000000" points="599.6109,-190 496.3891,-190 496.3891,-154 599.6109,-154 599.6109,-190"/>
<text text-anchor="middle" x="548" y="-167.8" font-family="Times,serif" font-size="14.00" fill="#000000">ListComponent</text>
</g>
<!-- ListComponent&#45;&gt;AppModule -->
<g id="edge5" class="edge">
<title>ListComponent&#45;&gt;AppModule</title>
<path fill="none" stroke="#000000" d="M512.1364,-190.1061C512.1364,-190.1061 512.1364,-208.991 512.1364,-208.991"/>
<polygon fill="#000000" stroke="#000000" points="508.6365,-208.9909 512.1364,-218.991 515.6365,-208.991 508.6365,-208.9909"/>
</g>
<!-- ItemComponent -->
<g id="node7" class="node">
<title>ItemComponent</title>
<polygon fill="#ffffb3" stroke="#000000" points="478.4888,-190 371.5112,-190 371.5112,-154 478.4888,-154 478.4888,-190"/>
<text text-anchor="middle" x="425" y="-167.8" font-family="Times,serif" font-size="14.00" fill="#000000">ItemComponent</text>
</g>
<!-- ItemComponent&#45;&gt;AppModule -->
<g id="edge6" class="edge">
<title>ItemComponent&#45;&gt;AppModule</title>
<path fill="none" stroke="#000000" d="M461.3331,-190.1061C461.3331,-190.1061 461.3331,-208.991 461.3331,-208.991"/>
<polygon fill="#000000" stroke="#000000" points="457.8332,-208.9909 461.3331,-218.991 464.8332,-208.991 457.8332,-208.9909"/>
</g>
<!-- AppComponent  -->
<g id="node10" class="node">
<title>AppComponent </title>
<polygon fill="#80b1d3" stroke="#000000" points="540.439,-323 431.561,-323 431.561,-287 540.439,-287 540.439,-323"/>
<text text-anchor="middle" x="486" y="-300.8" font-family="Times,serif" font-size="14.00" fill="#000000">AppComponent </text>
</g>
<!-- AppModule&#45;&gt;AppComponent  -->
<g id="edge9" class="edge">
<title>AppModule&#45;&gt;AppComponent </title>
<path fill="none" stroke="#000000" stroke-dasharray="1,5" d="M486,-255.2228C486,-255.2228 486,-276.7269 486,-276.7269"/>
<polygon fill="#000000" stroke="#000000" points="482.5001,-276.7269 486,-286.7269 489.5001,-276.727 482.5001,-276.7269"/>
</g>
<!-- BrowserModule -->
<g id="node9" class="node">
<title>BrowserModule</title>
<polygon fill="#8dd3c7" stroke="#000000" points="348.4734,-190 345.4734,-194 324.4734,-194 321.4734,-190 241.5266,-190 241.5266,-154 348.4734,-154 348.4734,-190"/>
<text text-anchor="middle" x="295" y="-167.8" font-family="Times,serif" font-size="14.00" fill="#000000">BrowserModule</text>
</g>
<!-- BrowserModule&#45;&gt;AppModule -->
<g id="edge7" class="edge">
<title>BrowserModule&#45;&gt;AppModule</title>
<path fill="none" stroke="#000000" d="M295,-190.0225C295,-207.3734 295,-231 295,-231 295,-231 434.0842,-231 434.0842,-231"/>
<polygon fill="#000000" stroke="#000000" points="434.0843,-234.5001 444.0842,-231 434.0842,-227.5001 434.0843,-234.5001"/>
</g>
</g>
</svg>
